<svg width="6" height="7" viewBox="0 0 6 7" fill="none" xmlns="http://www.w3.org/2000/svg">
<path d="M2.9166 0.5C3.04317 0.5 3.1478 0.594003 3.16437 0.716027L3.16667 0.74995L3.16707 3.16667H5.58477C5.72283 3.16667 5.83477 3.2786 5.83477 3.41667C5.83477 3.54323 5.7407 3.64783 5.6187 3.6644L5.58477 3.66667H3.16707L3.16773 6.08303C3.16777 6.2211 3.05587 6.3331 2.9178 6.3331C2.79123 6.3331 2.6866 6.2391 2.67003 6.11707L2.66773 6.08313L2.66707 3.66667H0.250732C0.112659 3.66667 0.000732422 3.55473 0.000732422 3.41667C0.000732422 3.2901 0.0947825 3.1855 0.216809 3.16893L0.250732 3.16667H2.66707L2.66667 0.75005C2.66663 0.61198 2.77853 0.5 2.9166 0.5Z" fill="#F9F9F9"/>
</svg>
