<svg width="16" height="17" viewBox="0 0 16 17" fill="none" xmlns="http://www.w3.org/2000/svg">
<path d="M7.41949 3.33375L1.08949 14.2987C0.834494 14.7437 1.15449 15.3038 1.66949 15.3038H14.3295C14.8445 15.3038 15.1645 14.7487 14.9095 14.2987L8.57949 3.33375C8.31949 2.88875 7.67949 2.88875 7.41949 3.33375Z" fill="#FFB02E"/>
<path d="M7.2998 11.2498C7.2998 11.6348 7.6098 11.9498 7.9998 11.9498C8.3898 11.9498 8.6998 11.6348 8.6998 11.2448V6.66484C8.6998 6.27984 8.3898 5.96484 7.9998 5.96484C7.6148 5.96484 7.2998 6.27484 7.2998 6.66484V11.2498Z" fill="black"/>
<path d="M8.6998 13.2399C8.6998 13.6265 8.3864 13.9399 7.9998 13.9399C7.61321 13.9399 7.2998 13.6265 7.2998 13.2399C7.2998 12.8533 7.61321 12.5399 7.9998 12.5399C8.3864 12.5399 8.6998 12.8533 8.6998 13.2399Z" fill="black"/>
</svg>
